<svg width="55" height="35" viewBox="0 0 55 35" fill="none" xmlns="http://www.w3.org/2000/svg">
<path d="M43.427 23.569C42.3476 21.3186 38.4861 18.195 34.7553 15.1769C32.6745 13.4948 30.7082 11.9044 29.4547 10.6509C29.1407 10.3346 28.671 10.2338 28.2562 10.3828C27.4839 10.6624 27.0072 10.8778 26.6314 11.045C26.0586 11.3017 25.8661 11.3888 25.0937 11.4667C24.7522 11.501 24.4452 11.6844 24.255 11.9685C22.6347 14.3908 20.9572 14.1845 19.8366 13.8088C19.4791 13.6896 19.415 13.536 19.3806 13.3894C19.14 12.3834 20.3477 10.0413 21.9128 8.47603C25.6368 4.74978 27.5572 3.81704 31.6135 5.62978C36.2151 7.68766 40.826 9.29877 40.8718 9.31478C41.4746 9.52329 42.1231 9.20704 42.3316 8.60891C42.5378 8.01079 42.2238 7.35766 41.6257 7.14916C41.5798 7.13315 37.0607 5.55416 32.5507 3.53516C27.296 1.18617 24.413 2.73304 20.2948 6.85353C18.7273 8.42103 16.5984 11.5927 17.1484 13.9188C17.3844 14.9088 18.0811 15.6421 19.1169 15.9835C21.7134 16.8406 24.0829 16.0202 25.8475 13.6781C26.5762 13.5659 26.9727 13.4009 27.5685 13.1328C27.7839 13.0365 28.036 12.9243 28.3706 12.789C29.6815 14.0196 31.4506 15.4519 33.3137 16.9575C36.6825 19.6823 40.5027 22.7715 41.3621 24.559C41.7861 25.4413 41.33 26.0165 41.0206 26.28C40.5669 26.6696 39.9459 26.7934 39.609 26.5573C39.2377 26.3029 38.7542 26.2869 38.3715 26.516C37.9865 26.7452 37.7711 27.1783 37.8192 27.6229C37.8971 28.3516 37.2302 28.7688 36.9415 28.9131C36.2081 29.2844 35.4427 29.2203 35.1562 28.9544C34.8354 28.6565 34.3747 28.5694 33.9669 28.7206C33.559 28.8741 33.2747 29.25 33.2335 29.6854C33.1647 30.437 32.6079 31.1589 31.8814 31.4408C31.5307 31.5737 31.022 31.6539 30.566 31.2368C30.2819 30.9802 29.8876 30.8815 29.5187 30.9709C29.1452 31.0625 28.845 31.333 28.7144 31.6928C28.6709 31.8074 28.5722 32.0824 27.4997 32.0824C26.7366 32.0824 25.3639 31.5668 24.6925 31.1222C23.8881 30.5928 18.8441 26.8299 14.4877 23.1815C13.8759 22.6659 12.8171 21.5613 11.8821 20.585C11.0525 19.7188 10.294 18.9328 9.90436 18.6028C9.41624 18.1903 8.69436 18.2522 8.28874 18.738C7.88086 19.2215 7.94037 19.9458 8.42398 20.3537C8.77922 20.6539 9.46672 21.3803 10.2252 22.1709C11.2473 23.2388 12.3037 24.3434 13.0142 24.9393C17.2813 28.512 22.4101 32.3689 23.4321 33.0403C24.2755 33.5949 26.0927 34.374 27.4998 34.374C28.6296 34.374 29.4982 34.115 30.1009 33.6087C30.9075 33.9227 31.8242 33.9249 32.7065 33.5812C33.7492 33.1778 34.6062 32.3643 35.0921 31.3789C35.995 31.5714 37.0286 31.4362 37.9681 30.9642C38.8871 30.5013 39.5516 29.7931 39.8816 28.9658C40.7937 29.0139 41.7332 28.6908 42.5101 28.0239C43.8257 26.8988 44.1877 25.148 43.427 23.569Z" fill="#E7C242"/>
<path d="M22.9166 4.58252H12.6041C11.9716 4.58252 11.4583 5.09589 11.4583 5.72839C11.4583 6.36089 11.9716 6.87426 12.6041 6.87426H22.9166C23.5491 6.87426 24.0625 6.36089 24.0625 5.72839C24.0625 5.09589 23.5491 4.58252 22.9166 4.58252Z" fill="#E7C242"/>
<path d="M46.7844 21.1306C46.4292 20.6059 45.7188 20.4615 45.1941 20.819L41.8437 23.0694C41.3189 23.4223 41.1791 24.135 41.532 24.6598C41.7543 24.9875 42.1164 25.1663 42.4854 25.1663C42.7032 25.1663 42.9254 25.1044 43.1225 24.9715L46.4729 22.7211C46.9976 22.3681 47.1373 21.6555 46.7844 21.1306Z" fill="#E7C242"/>
<path d="M39.671 26.5987C38.8507 25.9525 35.1817 22.1965 32.9129 19.8315C32.4752 19.3731 31.7488 19.3571 31.2927 19.7971C30.8343 20.2348 30.8206 20.9612 31.2583 21.4173C31.8473 22.0315 37.0424 27.4467 38.2502 28.4001C38.4587 28.5651 38.7108 28.6453 38.9583 28.6453C39.2952 28.6453 39.6321 28.4941 39.8612 28.2076C40.2532 27.7125 40.1684 26.9906 39.671 26.5987Z" fill="#E7C242"/>
<path d="M35.0922 28.8972C33.7195 27.7994 30.2706 24.1351 29.4913 23.2872C29.0605 22.8197 28.3386 22.7922 27.8711 23.2184C27.4058 23.6469 27.3738 24.3734 27.8023 24.8387C27.8436 24.8822 31.9594 29.3258 33.6598 30.6871C33.8707 30.8543 34.1251 30.9368 34.3748 30.9368C34.7094 30.9368 35.044 30.7878 35.2708 30.5083C35.6652 30.0132 35.5849 29.2913 35.0922 28.8972Z" fill="#E7C242"/>
<path d="M30.5319 31.2049C28.8979 29.8277 25.5544 26.2687 24.9013 25.5697C24.4681 25.1068 23.7416 25.0816 23.281 25.5147C22.8181 25.9478 22.7951 26.6719 23.226 27.1349C24.1656 28.1409 27.3648 31.5327 29.0538 32.9581C29.2691 33.1391 29.5304 33.2284 29.7916 33.2284C30.117 33.2284 30.4425 33.0887 30.6694 32.8206C31.0773 32.3347 31.0154 31.6128 30.5319 31.2049Z" fill="#E7C242"/>
<path d="M13.3925 2.60493C11.4285 0.744058 3.575 0.141314 1.21462 0.00155768C0.889238 -0.0144482 0.588994 0.0931891 0.359863 0.310933C0.130625 0.526314 0 0.828814 0 1.14506V21.7701C0 22.4026 0.513369 22.9159 1.14587 22.9159H8.02087C8.51587 22.9159 8.95587 22.5974 9.10937 22.1253C9.27663 21.6119 13.2252 9.49368 13.7454 3.53531C13.7752 3.18694 13.6469 2.84319 13.3925 2.60493ZM7.18437 20.6243H2.29163V2.37343C5.97437 2.66444 9.94812 3.29694 11.3919 3.99819C10.7846 9.01694 8.03687 17.9338 7.18437 20.6243Z" fill="#222222"/>
<path d="M53.854 2.29095C44.8569 2.29095 39.8657 4.59408 39.6572 4.69033C39.3593 4.83008 39.1369 5.08908 39.0453 5.40307C38.9537 5.71707 38.9994 6.05394 39.1713 6.33345C40.5875 8.6137 45.0219 21.2774 45.8744 24.3666C46.0119 24.8638 46.4634 25.2076 46.979 25.2076H53.854C54.4865 25.2076 54.9999 24.6942 54.9999 24.0617V3.43672C54.9999 2.80196 54.4865 2.29095 53.854 2.29095ZM52.7083 22.9159H47.8362C46.7499 19.3776 43.5415 10.1513 41.7518 6.33807C43.5003 5.74457 47.2564 4.7247 52.7083 4.59644V22.9159Z" fill="#222222"/>
</svg>
