<svg width="59" height="38" viewBox="0 0 59 38" fill="none" xmlns="http://www.w3.org/2000/svg">
<path d="M27.9434 36.0075V32.7645C27.9434 31.0444 27.2601 29.3947 26.0437 28.1783C24.8274 26.962 23.1777 26.2787 21.4575 26.2787H8.48585C6.76569 26.2787 5.11599 26.962 3.89966 28.1783C2.68333 29.3947 2 31.0444 2 32.7645V36.0075" stroke="#E7C242" stroke-width="2.43219" stroke-linecap="round" stroke-linejoin="round"/>
<path d="M14.9717 19.7928C18.5537 19.7928 21.4575 16.889 21.4575 13.307C21.4575 9.72492 18.5537 6.82111 14.9717 6.82111C11.3897 6.82111 8.48584 9.72492 8.48584 13.307C8.48584 16.889 11.3897 19.7928 14.9717 19.7928Z" stroke="#E7C242" stroke-width="2.43219" stroke-linecap="round" stroke-linejoin="round"/>
<path d="M57 36.0074V32.7645C57 31.0443 56.3167 29.3946 55.1004 28.1783C53.884 26.962 52.2343 26.2786 50.5142 26.2786H37.5425C35.8223 26.2786 34.1726 26.962 32.9563 28.1783C31.74 29.3946 31.0566 31.0443 31.0566 32.7645V36.0074" stroke="#222222" stroke-width="2.43219" stroke-linecap="round" stroke-linejoin="round"/>
<path d="M44.0283 19.7927C47.6104 19.7927 50.5142 16.8889 50.5142 13.3069C50.5142 9.72486 47.6104 6.82104 44.0283 6.82104C40.4463 6.82104 37.5425 9.72486 37.5425 13.3069C37.5425 16.8889 40.4463 19.7927 44.0283 19.7927Z" stroke="#222222" stroke-width="2.43219" stroke-linecap="round" stroke-linejoin="round"/>
<path d="M36.0506 1L28.219 10.3234L24.8625 6.59404" stroke="#222222" stroke-width="1.86468" stroke-linecap="round" stroke-linejoin="round"/>
</svg>
